<mxfile host="app.diagrams.net" modified="2024-04-25T05:00:37.579Z" agent="Mozilla/5.0 (Macintosh; Intel Mac OS X 10_15_7) AppleWebKit/605.1.15 (KHTML, like Gecko) Version/17.4.1 Safari/605.1.15" etag="tgxG5G_4wtbV7nGB_9Zk" version="24.2.7" type="github">
  <diagram name="Page-1" id="fWyHtkor9l7rRrTD2WUf">
    <mxGraphModel dx="1363" dy="924" grid="0" gridSize="10" guides="1" tooltips="1" connect="1" arrows="1" fold="1" page="1" pageScale="1" pageWidth="850" pageHeight="1100" background="none" math="0" shadow="0">
      <root>
        <mxCell id="0" />
        <mxCell id="1" parent="0" />
        <mxCell id="_0-qu6X5wqAPZ1qLUZdc-36" value="" style="rounded=0;whiteSpace=wrap;html=1;" vertex="1" parent="1">
          <mxGeometry x="82" y="17" width="690" height="819" as="geometry" />
        </mxCell>
        <mxCell id="_0-qu6X5wqAPZ1qLUZdc-2" value="Mahasiswa" style="shape=umlActor;verticalLabelPosition=bottom;verticalAlign=top;html=1;outlineConnect=0;" vertex="1" parent="1">
          <mxGeometry x="158" y="327" width="30" height="60" as="geometry" />
        </mxCell>
        <mxCell id="_0-qu6X5wqAPZ1qLUZdc-4" value="Dosen" style="shape=umlActor;verticalLabelPosition=bottom;verticalAlign=top;html=1;outlineConnect=0;" vertex="1" parent="1">
          <mxGeometry x="158" y="468" width="30" height="60" as="geometry" />
        </mxCell>
        <mxCell id="_0-qu6X5wqAPZ1qLUZdc-5" value="Admin" style="shape=umlActor;verticalLabelPosition=bottom;verticalAlign=top;html=1;outlineConnect=0;" vertex="1" parent="1">
          <mxGeometry x="713" y="385" width="30" height="60" as="geometry" />
        </mxCell>
        <mxCell id="_0-qu6X5wqAPZ1qLUZdc-7" value="Masuk" style="ellipse;whiteSpace=wrap;html=1;" vertex="1" parent="1">
          <mxGeometry x="348" y="213" width="140" height="70" as="geometry" />
        </mxCell>
        <mxCell id="_0-qu6X5wqAPZ1qLUZdc-9" value="Melakukan Pendaftaran&lt;div&gt;Seminar&lt;/div&gt;" style="ellipse;whiteSpace=wrap;html=1;" vertex="1" parent="1">
          <mxGeometry x="342" y="118" width="140" height="70" as="geometry" />
        </mxCell>
        <mxCell id="_0-qu6X5wqAPZ1qLUZdc-10" value="Manajemen Pendaftaran" style="ellipse;whiteSpace=wrap;html=1;" vertex="1" parent="1">
          <mxGeometry x="348" y="421" width="140" height="70" as="geometry" />
        </mxCell>
        <mxCell id="_0-qu6X5wqAPZ1qLUZdc-11" value="Memeriksa Berkas Pendaftaran" style="ellipse;whiteSpace=wrap;html=1;" vertex="1" parent="1">
          <mxGeometry x="348" y="317" width="140" height="70" as="geometry" />
        </mxCell>
        <mxCell id="_0-qu6X5wqAPZ1qLUZdc-12" value="Memilih Dosen Penguji dan Jadwal Seminar" style="ellipse;whiteSpace=wrap;html=1;" vertex="1" parent="1">
          <mxGeometry x="348" y="513" width="140" height="70" as="geometry" />
        </mxCell>
        <mxCell id="_0-qu6X5wqAPZ1qLUZdc-13" value="Menerima Pengujian Seminar" style="ellipse;whiteSpace=wrap;html=1;" vertex="1" parent="1">
          <mxGeometry x="348" y="609" width="140" height="70" as="geometry" />
        </mxCell>
        <mxCell id="_0-qu6X5wqAPZ1qLUZdc-14" value="Manajemen Hasil Seminar" style="ellipse;whiteSpace=wrap;html=1;" vertex="1" parent="1">
          <mxGeometry x="348" y="701" width="140" height="70" as="geometry" />
        </mxCell>
        <mxCell id="_0-qu6X5wqAPZ1qLUZdc-17" value="" style="endArrow=none;html=1;rounded=0;exitX=1;exitY=0.3333333333333333;exitDx=0;exitDy=0;exitPerimeter=0;entryX=0;entryY=0.5;entryDx=0;entryDy=0;" edge="1" parent="1" source="_0-qu6X5wqAPZ1qLUZdc-2" target="_0-qu6X5wqAPZ1qLUZdc-7">
          <mxGeometry width="50" height="50" relative="1" as="geometry">
            <mxPoint x="407" y="446" as="sourcePoint" />
            <mxPoint x="457" y="396" as="targetPoint" />
          </mxGeometry>
        </mxCell>
        <mxCell id="_0-qu6X5wqAPZ1qLUZdc-18" value="" style="endArrow=none;html=1;rounded=0;entryX=0;entryY=0.5;entryDx=0;entryDy=0;exitX=1;exitY=0.3333333333333333;exitDx=0;exitDy=0;exitPerimeter=0;" edge="1" parent="1" source="_0-qu6X5wqAPZ1qLUZdc-2" target="_0-qu6X5wqAPZ1qLUZdc-9">
          <mxGeometry width="50" height="50" relative="1" as="geometry">
            <mxPoint x="221" y="381" as="sourcePoint" />
            <mxPoint x="358" y="162" as="targetPoint" />
          </mxGeometry>
        </mxCell>
        <mxCell id="_0-qu6X5wqAPZ1qLUZdc-23" value="" style="endArrow=none;html=1;rounded=0;entryX=0;entryY=0.3333333333333333;entryDx=0;entryDy=0;entryPerimeter=0;exitX=1;exitY=0.5;exitDx=0;exitDy=0;" edge="1" parent="1" source="_0-qu6X5wqAPZ1qLUZdc-7" target="_0-qu6X5wqAPZ1qLUZdc-5">
          <mxGeometry width="50" height="50" relative="1" as="geometry">
            <mxPoint x="136" y="462" as="sourcePoint" />
            <mxPoint x="358" y="266" as="targetPoint" />
          </mxGeometry>
        </mxCell>
        <mxCell id="_0-qu6X5wqAPZ1qLUZdc-24" value="" style="endArrow=none;html=1;rounded=0;entryX=0;entryY=0.3333333333333333;entryDx=0;entryDy=0;entryPerimeter=0;exitX=1;exitY=0.5;exitDx=0;exitDy=0;" edge="1" parent="1" source="_0-qu6X5wqAPZ1qLUZdc-11" target="_0-qu6X5wqAPZ1qLUZdc-5">
          <mxGeometry width="50" height="50" relative="1" as="geometry">
            <mxPoint x="498" y="162" as="sourcePoint" />
            <mxPoint x="699" y="236" as="targetPoint" />
          </mxGeometry>
        </mxCell>
        <mxCell id="_0-qu6X5wqAPZ1qLUZdc-25" value="" style="endArrow=none;html=1;rounded=0;entryX=0;entryY=0.3333333333333333;entryDx=0;entryDy=0;entryPerimeter=0;exitX=1;exitY=0.5;exitDx=0;exitDy=0;" edge="1" parent="1" source="_0-qu6X5wqAPZ1qLUZdc-10" target="_0-qu6X5wqAPZ1qLUZdc-5">
          <mxGeometry width="50" height="50" relative="1" as="geometry">
            <mxPoint x="498" y="362" as="sourcePoint" />
            <mxPoint x="699" y="236" as="targetPoint" />
          </mxGeometry>
        </mxCell>
        <mxCell id="_0-qu6X5wqAPZ1qLUZdc-26" value="" style="endArrow=none;html=1;rounded=0;entryX=0;entryY=0.3333333333333333;entryDx=0;entryDy=0;entryPerimeter=0;exitX=1;exitY=0.5;exitDx=0;exitDy=0;" edge="1" parent="1" source="_0-qu6X5wqAPZ1qLUZdc-12" target="_0-qu6X5wqAPZ1qLUZdc-5">
          <mxGeometry width="50" height="50" relative="1" as="geometry">
            <mxPoint x="498" y="466" as="sourcePoint" />
            <mxPoint x="699" y="236" as="targetPoint" />
          </mxGeometry>
        </mxCell>
        <mxCell id="_0-qu6X5wqAPZ1qLUZdc-28" value="" style="endArrow=none;html=1;rounded=0;entryX=0;entryY=0.3333333333333333;entryDx=0;entryDy=0;entryPerimeter=0;exitX=1;exitY=0.5;exitDx=0;exitDy=0;" edge="1" parent="1" source="_0-qu6X5wqAPZ1qLUZdc-14" target="_0-qu6X5wqAPZ1qLUZdc-5">
          <mxGeometry width="50" height="50" relative="1" as="geometry">
            <mxPoint x="498" y="558" as="sourcePoint" />
            <mxPoint x="699" y="236" as="targetPoint" />
          </mxGeometry>
        </mxCell>
        <mxCell id="_0-qu6X5wqAPZ1qLUZdc-30" value="" style="endArrow=none;html=1;rounded=0;exitX=1;exitY=0.3333333333333333;exitDx=0;exitDy=0;exitPerimeter=0;entryX=0;entryY=0.5;entryDx=0;entryDy=0;" edge="1" parent="1" source="_0-qu6X5wqAPZ1qLUZdc-4" target="_0-qu6X5wqAPZ1qLUZdc-7">
          <mxGeometry width="50" height="50" relative="1" as="geometry">
            <mxPoint x="198" y="357" as="sourcePoint" />
            <mxPoint x="358" y="258" as="targetPoint" />
          </mxGeometry>
        </mxCell>
        <mxCell id="_0-qu6X5wqAPZ1qLUZdc-33" value="" style="endArrow=none;html=1;rounded=0;entryX=0;entryY=0.5;entryDx=0;entryDy=0;" edge="1" parent="1" target="_0-qu6X5wqAPZ1qLUZdc-13">
          <mxGeometry width="50" height="50" relative="1" as="geometry">
            <mxPoint x="189" y="487" as="sourcePoint" />
            <mxPoint x="358" y="258" as="targetPoint" />
          </mxGeometry>
        </mxCell>
        <mxCell id="_0-qu6X5wqAPZ1qLUZdc-34" value="&lt;b&gt;&lt;font style=&quot;font-size: 16px;&quot;&gt;Use Case 1.0 Sistem Pendaftaran dan Manajemen Seminar&lt;/font&gt;&lt;/b&gt;" style="text;html=1;align=left;verticalAlign=middle;whiteSpace=wrap;rounded=0;" vertex="1" parent="1">
          <mxGeometry x="106" y="50" width="487" height="30" as="geometry" />
        </mxCell>
      </root>
    </mxGraphModel>
  </diagram>
</mxfile>
